<svg width="57" height="36" viewBox="0 0 57 36" fill="none" xmlns="http://www.w3.org/2000/svg">
<path fill-rule="evenodd" clip-rule="evenodd" d="M29 36C38.9411 36 49 26 57 18C48.5 9.5 38.9411 0 29 0C19.0589 0 9 9 0.5 18C7.5 25 19.0589 36 29 36ZM29 30C35.6274 30 41 24.6274 41 18C41 11.3726 35.6274 6 29 6C22.3726 6 17 11.3726 17 18C17 24.6274 22.3726 30 29 30Z" fill="black"/>
<path d="M34 18C34 20.7614 31.7614 23 29 23C26.2386 23 24 20.7614 24 18C24 15.2386 26.2386 13 29 13C31.7614 13 34 15.2386 34 18Z" fill="black"/>
</svg>
