<svg width="57" height="47" viewBox="0 0 57 47" fill="none" xmlns="http://www.w3.org/2000/svg">
<path fill-rule="evenodd" clip-rule="evenodd" d="M38.3403 8.80563C35.1201 7.06694 31.8315 6 28.5 6C18.5589 6 8.5 15 0 24C3.28095 27.281 7.56342 31.4406 12.2114 34.9346L17.7691 29.3769C16.9571 27.7595 16.5 25.9331 16.5 24C16.5 17.3726 21.8726 12 28.5 12C30.4331 12 32.2595 12.4571 33.8769 13.2691L38.3403 8.80563ZM23.5133 23.6327C23.6925 21.1641 25.6641 19.1925 28.1327 19.0133L23.5133 23.6327ZM27.4218 28.8834L33.3834 22.9218C33.4598 23.269 33.5 23.6298 33.5 24C33.5 26.7614 31.2614 29 28.5 29C28.1298 29 27.769 28.9598 27.4218 28.8834ZM22.1322 34.173C23.9778 35.3306 26.1607 36 28.5 36C35.1274 36 40.5 30.6274 40.5 24C40.5 21.6607 39.8306 19.4778 38.673 17.6322L43.8718 12.4335C48.2685 15.7816 52.5014 20.0014 56.5 24C48.5 32 38.4411 42 28.5 42C25.015 42 21.3311 40.6481 17.7146 38.5907L22.1322 34.173Z" fill="black"/>
<path d="M46.566 1.71985C47.5159 0.770006 49.0559 0.770004 50.0057 1.71985V1.71985C50.9556 2.6697 50.9556 4.20971 50.0057 5.15956L10.1596 45.0057C9.20971 45.9556 7.6697 45.9556 6.71985 45.0057V45.0057C5.77 44.0559 5.77 42.5159 6.71985 41.566L46.566 1.71985Z" fill="black"/>
</svg>
